<?xml version="1.0" encoding="UTF-8" standalone="no"?>
<!-- Created with Inkscape (http://www.inkscape.org/) -->

<svg
   width="320mm"
   height="128mm"
   viewBox="0 0 320 128"
   version="1.1"
   id="svg1707"
   inkscape:version="1.2.2 (732a01da63, 2022-12-09)"
   sodipodi:docname="sand_concept.svg"
   xmlns:inkscape="http://www.inkscape.org/namespaces/inkscape"
   xmlns:sodipodi="http://sodipodi.sourceforge.net/DTD/sodipodi-0.dtd"
   xmlns="http://www.w3.org/2000/svg"
   xmlns:svg="http://www.w3.org/2000/svg">
  <sodipodi:namedview
     id="namedview1709"
     pagecolor="#505050"
     bordercolor="#ffffff"
     borderopacity="1"
     inkscape:showpageshadow="0"
     inkscape:pageopacity="0"
     inkscape:pagecheckerboard="1"
     inkscape:deskcolor="#505050"
     inkscape:document-units="mm"
     showgrid="false"
     inkscape:zoom="0.17354521"
     inkscape:cx="-1250.3946"
     inkscape:cy="1002.6206"
     inkscape:window-width="1366"
     inkscape:window-height="705"
     inkscape:window-x="-8"
     inkscape:window-y="-8"
     inkscape:window-maximized="1"
     inkscape:current-layer="layer1" />
  <defs
     id="defs1704" />
  <g
     inkscape:label="Layer 1"
     inkscape:groupmode="layer"
     id="layer1">
    <path
       style="fill:#d0c561;fill-opacity:1;stroke-width:0;stroke-linecap:square;stop-color:#000000"
       d="m 0,61.178765 c 33.300814,-20.888574 64,0 64,0 z"
       id="path1896" />
    <path
       style="fill:#d0c561;fill-opacity:1;stroke-width:0;stroke-linecap:square;stop-color:#000000"
       d="m 128,61.178765 c 33.30082,-20.888574 64,0 64,0 z"
       id="path2263" />
    <path
       style="fill:#d0c561;fill-opacity:1;stroke-width:0;stroke-linecap:square;stop-color:#000000"
       d="m 256,61.178765 c 33.30082,-20.888574 64,0 64,0 z"
       id="path2267" />
    <path
       id="rect2321"
       style="fill:#d0c561;fill-opacity:1;stroke-width:0;stroke-linecap:square;stop-color:#000000"
       d="M 0 61.178695 L 0 127.99994 L 320.00011 127.99994 L 320.00011 61.178695 L 255.99988 61.178695 C 255.99988 61.178695 225.30095 82.067248 192.00017 61.178695 L 127.99994 61.178695 C 94.699188 82.067227 64.000228 61.178695 64.000228 61.178695 L 0 61.178695 z " />
    <path
       style="fill:#d0c562;fill-opacity:1;stroke-width:0;stroke-linecap:square;stop-color:#000000"
       d="m -346.56099,61.178765 c 32,-9.283811 64,0 64,0 z"
       id="path2437" />
    <path
       style="fill:#d0c562;fill-opacity:1;stroke-width:0;stroke-linecap:square;stop-color:#000000"
       d="m -474.56098,61.178765 c 32,-9.283811 64,0 64,0 z"
       id="path2579" />
    <path
       style="fill:#d0c562;fill-opacity:1;stroke-width:0;stroke-linecap:square;stop-color:#000000"
       d="m -602.56097,61.178765 c 32,-9.283811 64,0 64,0 z"
       id="path2583" />
    <path
       id="rect2585"
       style="fill:#d0c561;fill-opacity:1;stroke-width:0;stroke-linecap:square;stop-color:#000000"
       d="M -602.56111,61.178695 V 127.99994 H -282.561 V 61.178695 h -64.00023 c 0,0 -31.99975,9.283801 -63.99971,0 h -64.00023 c 0,0 -31.99978,9.283791 -63.99971,0 z" />
    <path
       id="path2592"
       style="fill:#d0c561;fill-opacity:1;stroke-width:0;stroke-linecap:square;stop-color:#000000"
       d="M 0 61.178695 L 0 127.99994 L 320.00011 127.99994 L 320.00011 61.178695 L 255.99988 61.178695 C 255.99988 61.178695 225.30095 82.067248 192.00017 61.178695 L 127.99994 61.178695 C 94.699188 82.067227 64.000228 61.178695 64.000228 61.178695 L 0 61.178695 z " />
    <path
       id="path2594"
       style="fill:#d0c561;fill-opacity:1;stroke-width:0;stroke-linecap:square;stop-color:#000000"
       d="M 0 61.178695 L 0 127.99994 L 320.00011 127.99994 L 320.00011 61.178695 L 255.99988 61.178695 C 255.99988 61.178695 225.30095 82.067248 192.00017 61.178695 L 127.99994 61.178695 C 94.699188 82.067227 64.000228 61.178695 64.000228 61.178695 L 0 61.178695 z " />
    <path
       id="path2596"
       style="fill:#d0c561;fill-opacity:1;stroke-width:0;stroke-linecap:square;stop-color:#000000"
       d="M -602.56111,61.178695 V 127.99994 H -282.561 V 61.178695 h -64.00023 c 0,0 -31.99975,9.283801 -63.99971,0 h -64.00023 c 0,0 -31.99978,9.283791 -63.99971,0 z" />
    <path
       id="path2598"
       style="fill:#d0c561;fill-opacity:1;stroke-width:0;stroke-linecap:square;stop-color:#000000"
       d="M -127.99971,61.178697 V 127.99994 H -64 V 61.178698 c 0,0 -31.99984,9.28378 -63.99971,-10e-7 z" />
    <rect
       style="fill:#00adad;fill-opacity:0.136213;stroke-width:0;stroke-linecap:square;stop-color:#000000"
       id="rect2327"
       width="320"
       height="128"
       x="-10.894942"
       y="157.39375" />
    <path
       id="rect3379"
       style="fill:#d0c561;fill-opacity:1;stroke-width:0;stroke-linecap:square;stop-color:#000000"
       d="m -161.05196,51.896577 c -9.37397,0.0719 -20.02064,2.42807 -30.94746,9.28212 v 66.821243 h 63.99971 V 61.178698 c 0,0 -13.85791,-9.42945 -33.05225,-9.282121 z" />
    <path
       id="path3381"
       style="fill:#d0c561;fill-opacity:1;stroke-width:0;stroke-linecap:square;stop-color:#000000"
       d="M 0 61.178695 L 0 127.99994 L 320.00011 127.99994 L 320.00011 61.178695 L 255.99988 61.178695 C 255.99988 61.178695 225.30095 82.067248 192.00017 61.178695 L 127.99994 61.178695 C 94.699188 82.067227 64.000228 61.178695 64.000228 61.178695 L 0 61.178695 z " />
    <path
       id="path3463"
       style="fill:#d0c561;fill-opacity:1;stroke-width:0;stroke-linecap:square;stop-color:#000000"
       d="m -161.05196,51.896577 c -9.37397,0.0719 -20.02064,2.42807 -30.94746,9.28212 v 66.821243 h 63.99971 V 61.178698 c 0,0 -13.85791,-9.42945 -33.05225,-9.282121 z" />
    <path
       id="path3465"
       style="fill:#d0c561;fill-opacity:1;stroke-width:0;stroke-linecap:square;stop-color:#000000"
       d="m -161.05196,51.896577 c -9.37397,0.0719 -20.02064,2.42807 -30.94746,9.28212 v 66.821243 h 63.99971 V 61.178698 c 0,0 -13.85791,-9.42945 -33.05225,-9.282121 z" />
    <path
       id="path3467"
       style="fill:#d0c561;fill-opacity:1;stroke-width:0;stroke-linecap:square;stop-color:#000000"
       d="M -127.99971,61.178697 V 127.99994 H -64 V 61.178698 c 0,0 -31.99984,9.28378 -63.99971,-10e-7 z" />
    <path
       id="path3469"
       style="fill:#d0c561;fill-opacity:1;stroke-width:0;stroke-linecap:square;stop-color:#000000"
       d="M -127.99971,61.178697 V 127.99994 H -64 V 61.178698 c 0,0 -31.99984,9.28378 -63.99971,-10e-7 z" />
    <circle
       id="path360"
       style="fill:#000000;stroke:none;stroke-width:0.264583"
       cx="-602.56097"
       cy="61.178768"
       r="0.039687499" />
    <path
       id="Gentle_Rise"
       style="fill:#d0c561;fill-opacity:1;stroke-width:0;stroke-linecap:square;stop-color:#000000"
       d="M -570.87213 289.55752 C -580.57821 289.52844 -591.58679 289.97161 -602.60043 291.38997 L -602.56115 291.38997 L -602.56115 358.21121 L -538.56093 358.21121 L -538.56093 291.38997 C -538.56093 291.38997 -552.34235 289.61303 -570.87213 289.55752 z " />
    <path
       id="path1282"
       style="fill:#d0c561;fill-opacity:1;stroke-width:0;stroke-linecap:square;stop-color:#000000"
       d="M -538.56088 358.21133 L -516.95497 358.21133 " />
    <path
       id="Gentle_Fall"
       style="fill:#d0c561;fill-opacity:1;stroke-width:0;stroke-linecap:square;stop-color:#000000"
       d="m -538.56088,291.39016 v 66.82124 h 64.00023 v -66.81659 c -0.22025,0.0283 -32.0714,4.10721 -64.00023,-0.005 z" />
    <path
       id="path1295"
       style="fill:#d0c561;fill-opacity:1;stroke-width:0;stroke-linecap:square;stop-color:#000000"
       d="m -442.87163,289.55752 c -9.70608,-0.0291 -20.71466,0.41409 -31.7283,1.83245 h 0.0393 v 66.82124 h 64.00022 v -66.82124 c 0,0 -13.78142,-1.77694 -32.3112,-1.83245 z" />
    <path
       id="path1297"
       style="fill:#d0c561;fill-opacity:1;stroke-width:0;stroke-linecap:square;stop-color:#000000"
       d="m -410.56036,291.39016 v 66.82124 h 64.00023 v -66.81659 c -0.22025,0.0283 -32.0714,4.10721 -64.00023,-0.005 z" />
    <path
       id="path1299"
       style="fill:#d0c561;fill-opacity:1;stroke-width:0;stroke-linecap:square;stop-color:#000000"
       d="m -314.87111,289.55752 c -9.70608,-0.0291 -20.71466,0.41409 -31.7283,1.83245 h 0.0393 v 66.82124 h 64.00022 v -66.82124 c 0,0 -13.78142,-1.77694 -32.3112,-1.83245 z" />
    <path
       id="path1301"
       style="fill:#d0c561;fill-opacity:1;stroke-width:0;stroke-linecap:square;stop-color:#000000"
       d="m -538.56088,291.39016 v 66.82124 h 64.00023 v -66.81659 c -0.22025,0.0283 -32.0714,4.10721 -64.00023,-0.005 z" />
    <path
       id="path1303"
       style="fill:#d0c561;fill-opacity:1;stroke-width:0;stroke-linecap:square;stop-color:#000000"
       d="m -538.56088,291.39016 v 66.82124 h 64.00023 v -66.81659 c -0.22025,0.0283 -32.0714,4.10721 -64.00023,-0.005 z" />
    <path
       id="path1305"
       style="fill:#d0c561;fill-opacity:1;stroke-width:0;stroke-linecap:square;stop-color:#000000"
       d="m -538.56088,291.39016 v 66.82124 h 64.00023 v -66.81659 c -0.22025,0.0283 -32.0714,4.10721 -64.00023,-0.005 z" />
    <path
       id="path1307"
       style="fill:#d0c561;fill-opacity:1;stroke-width:0;stroke-linecap:square;stop-color:#000000"
       d="m -538.56088,291.39016 v 66.82124 h 64.00023 v -66.81659 c -0.22025,0.0283 -32.0714,4.10721 -64.00023,-0.005 z" />
    <path
       id="path1309"
       style="fill:#d0c561;fill-opacity:1;stroke-width:0;stroke-linecap:square;stop-color:#000000"
       d="m -538.56088,291.39016 v 66.82124 h 64.00023 v -66.81659 c -0.22025,0.0283 -32.0714,4.10721 -64.00023,-0.005 z" />
    <path
       id="path1311"
       style="fill:#d0c561;fill-opacity:1;stroke-width:0;stroke-linecap:square;stop-color:#000000"
       d="m -410.56036,291.39016 v 66.82124 h 64.00023 v -66.81659 c -0.22025,0.0283 -32.0714,4.10721 -64.00023,-0.005 z" />
    <path
       id="path1313"
       style="fill:#d0c561;fill-opacity:1;stroke-width:0;stroke-linecap:square;stop-color:#000000"
       d="m -410.56036,291.39016 v 66.82124 h 64.00023 v -66.81659 c -0.22025,0.0283 -32.0714,4.10721 -64.00023,-0.005 z" />
    <path
       id="path1315"
       style="fill:#d0c561;fill-opacity:1;stroke-width:0;stroke-linecap:square;stop-color:#000000"
       d="m -410.56036,291.39016 v 66.82124 h 64.00023 v -66.81659 c -0.22025,0.0283 -32.0714,4.10721 -64.00023,-0.005 z" />
    <path
       id="path1317"
       style="fill:#d0c561;fill-opacity:1;stroke-width:0;stroke-linecap:square;stop-color:#000000"
       d="m -410.56036,291.39016 v 66.82124 h 64.00023 v -66.81659 c -0.22025,0.0283 -32.0714,4.10721 -64.00023,-0.005 z" />
    <path
       id="path1319"
       style="fill:#d0c561;fill-opacity:1;stroke-width:0;stroke-linecap:square;stop-color:#000000"
       d="m -410.56036,291.39016 v 66.82124 h 64.00023 v -66.81659 c -0.22025,0.0283 -32.0714,4.10721 -64.00023,-0.005 z" />
    <path
       id="path1321"
       style="fill:#d0c561;fill-opacity:1;stroke-width:0;stroke-linecap:square;stop-color:#000000"
       d="M -570.87213 289.55752 C -580.57821 289.52844 -591.58679 289.97161 -602.60043 291.38997 L -602.56115 291.38997 L -602.56115 358.21121 L -538.56093 358.21121 L -538.56093 291.38997 C -538.56093 291.38997 -552.34235 289.61303 -570.87213 289.55752 z " />
    <path
       id="path1323"
       style="fill:#d0c561;fill-opacity:1;stroke-width:0;stroke-linecap:square;stop-color:#000000"
       d="M -570.87213 289.55752 C -580.57821 289.52844 -591.58679 289.97161 -602.60043 291.38997 L -602.56115 291.38997 L -602.56115 358.21121 L -538.56093 358.21121 L -538.56093 291.38997 C -538.56093 291.38997 -552.34235 289.61303 -570.87213 289.55752 z " />
    <path
       id="path1325"
       style="fill:#d0c561;fill-opacity:1;stroke-width:0;stroke-linecap:square;stop-color:#000000"
       d="M -570.87213 289.55752 C -580.57821 289.52844 -591.58679 289.97161 -602.60043 291.38997 L -602.56115 291.38997 L -602.56115 358.21121 L -538.56093 358.21121 L -538.56093 291.38997 C -538.56093 291.38997 -552.34235 289.61303 -570.87213 289.55752 z " />
    <path
       id="path1327"
       style="fill:#d0c561;fill-opacity:1;stroke-width:0;stroke-linecap:square;stop-color:#000000"
       d="M -570.87213 289.55752 C -580.57821 289.52844 -591.58679 289.97161 -602.60043 291.38997 L -602.56115 291.38997 L -602.56115 358.21121 L -538.56093 358.21121 L -538.56093 291.38997 C -538.56093 291.38997 -552.34235 289.61303 -570.87213 289.55752 z " />
    <path
       id="path1329"
       style="fill:#d0c561;fill-opacity:1;stroke-width:0;stroke-linecap:square;stop-color:#000000"
       d="m -314.87111,289.55752 c -9.70608,-0.0291 -20.71466,0.41409 -31.7283,1.83245 h 0.0393 v 66.82124 h 64.00022 v -66.82124 c 0,0 -13.78142,-1.77694 -32.3112,-1.83245 z" />
    <path
       id="path1331"
       style="fill:#d0c561;fill-opacity:1;stroke-width:0;stroke-linecap:square;stop-color:#000000"
       d="m -314.87111,289.55752 c -9.70608,-0.0291 -20.71466,0.41409 -31.7283,1.83245 h 0.0393 v 66.82124 h 64.00022 v -66.82124 c 0,0 -13.78142,-1.77694 -32.3112,-1.83245 z" />
    <path
       id="path1333"
       style="fill:#d0c561;fill-opacity:1;stroke-width:0;stroke-linecap:square;stop-color:#000000"
       d="m -314.87111,289.55752 c -9.70608,-0.0291 -20.71466,0.41409 -31.7283,1.83245 h 0.0393 v 66.82124 h 64.00022 v -66.82124 c 0,0 -13.78142,-1.77694 -32.3112,-1.83245 z" />
    <path
       id="path1335"
       style="fill:#d0c561;fill-opacity:1;stroke-width:0;stroke-linecap:square;stop-color:#000000"
       d="m -314.87111,289.55752 c -9.70608,-0.0291 -20.71466,0.41409 -31.7283,1.83245 h 0.0393 v 66.82124 h 64.00022 v -66.82124 c 0,0 -13.78142,-1.77694 -32.3112,-1.83245 z" />
  </g>
</svg>
